
<svg version="1.1" xmlns="http://www.w3.org/2000/svg" width="32" height="32" fill="white" viewBox="0 0 32 32">
<title>information</title>
<path d="M31.863 27.092l-4.525-4.525c-0.183-0.183-0.48-0.183-0.663 0l-0.49 0.49-1.801-1.801 0.49-0.49c0.088-0.088 0.137-0.207 0.137-0.331s-0.049-0.244-0.137-0.331l-2.199-2.199c0.451-0.818 0.807-1.687 1.056-2.59 0.536-1.939 0.58-4.002 0.127-5.964-0.058-0.252-0.31-0.41-0.562-0.351s-0.41 0.31-0.351 0.562c0.872 3.777-0.242 7.667-2.979 10.404-2.174 2.174-5.029 3.261-7.884 3.26s-5.711-1.087-7.884-3.26c-4.347-4.348-4.347-11.421 0-15.768s11.421-4.347 15.768 0c0.982 0.982 1.761 2.116 2.316 3.373 0.105 0.237 0.382 0.344 0.618 0.239s0.344-0.381 0.239-0.618c-0.602-1.363-1.447-2.593-2.51-3.657-4.713-4.713-12.382-4.713-17.094 0s-4.713 12.381 0 17.094c2.357 2.357 5.451 3.535 8.547 3.534 2.008-0 4.016-0.497 5.823-1.488l2.198 2.198c0.088 0.088 0.207 0.137 0.331 0.137s0.244-0.049 0.331-0.137l0.49-0.49 1.801 1.801-0.49 0.49c-0.183 0.183-0.183 0.48 0 0.663l1.352 1.352c0.092 0.092 0.212 0.137 0.331 0.137s0.24-0.046 0.331-0.137c0.183-0.183 0.183-0.48 0-0.663l-1.020-1.020 3.445-3.445 4.194 4.194c0.183 0.183 0.48 0.183 0.663 0s0.183-0.48-0-0.663zM20.434 23.879l-1.702-1.702c0.671-0.442 1.307-0.958 1.897-1.548 0.581-0.581 1.098-1.218 1.546-1.898l1.703 1.703zM21.918 23.72l1.802-1.802 1.801 1.801-1.802 1.802z"></path>
<path d="M26.128 29.573c-0.183-0.183-0.48-0.183-0.663 0s-0.183 0.48 0 0.663l1.627 1.627c0.092 0.092 0.212 0.137 0.331 0.137s0.24-0.046 0.331-0.137c0.183-0.183 0.183-0.48 0-0.663z"></path>
<path d="M12.081 8.067c0.816 0 1.479-0.664 1.479-1.479s-0.664-1.479-1.479-1.479c-0.816 0-1.479 0.664-1.479 1.479s0.664 1.479 1.479 1.479zM12.081 6.046c0.299 0 0.541 0.243 0.541 0.541s-0.243 0.542-0.541 0.542c-0.299 0-0.541-0.243-0.541-0.542s0.243-0.541 0.541-0.541z"></path>
<path d="M10.602 18.143c0 0.259 0.21 0.469 0.469 0.469h2.021c0.259 0 0.469-0.21 0.469-0.469v-8.524c0-0.259-0.21-0.469-0.469-0.469h-2.021c-0.259 0-0.469 0.21-0.469 0.469zM11.54 10.088h1.083v7.587h-1.083z"></path>
<path d="M3.753 10.222c-0.255-0.043-0.497 0.131-0.539 0.386-0.473 2.857 0.466 5.784 2.511 7.829 1.698 1.698 3.955 2.633 6.356 2.633s4.658-0.935 6.356-2.633 2.633-3.955 2.633-6.356-0.935-4.658-2.633-6.356c-1.698-1.698-3.955-2.633-6.356-2.633s-4.658 0.935-6.356 2.633c-0.78 0.78-1.402 1.681-1.848 2.678-0.106 0.236 0 0.514 0.237 0.619s0.514-0 0.619-0.237c0.399-0.892 0.955-1.699 1.654-2.397 1.521-1.521 3.542-2.358 5.693-2.358s4.173 0.838 5.693 2.358c1.521 1.521 2.358 3.542 2.358 5.693s-0.837 4.172-2.358 5.693c-1.521 1.521-3.543 2.358-5.693 2.358s-4.172-0.837-5.693-2.358c-1.832-1.832-2.673-4.454-2.249-7.013 0.042-0.256-0.13-0.497-0.386-0.539z"></path>
</svg>
